<?xml version="1.0" encoding="utf-8"?>
<!-- Generator: Adobe Illustrator 22.0.0, SVG Export Plug-In . SVG Version: 6.00 Build 0)  -->
<svg version="1.1" id="图层_1" xmlns="http://www.w3.org/2000/svg" xmlns:xlink="http://www.w3.org/1999/xlink" x="0px" y="0px"
	 viewBox="0 0 2834.6 4252" style="enable-background:new 0 0 2834.6 4252;" xml:space="preserve">
<style type="text/css">
	.st0{fill:#FFFFFF;}
	.st1{fill:none;stroke:#938376;stroke-width:20;stroke-miterlimit:10;}
	.st2{stroke:#000000;stroke-width:20;stroke-miterlimit:10;}
	.st3{fill:#FFFFFF;stroke:#000000;stroke-width:20;stroke-miterlimit:10;}
	.st4{fill:#E0E0E0;}
	.st5{stroke:#FFFFFF;stroke-width:10;stroke-miterlimit:10;}
	.st6{fill:none;stroke:#000000;stroke-width:20;stroke-miterlimit:10;}
	.st7{fill:#029B60;}
</style>
<path class="st0" d="M1610,2020.4c0,0-606.3,1030.6,214.8,770.6c0,0,525.1,217.1,463.8-242.8c0,0-66.7-293.2-102.7-261.2
	S1610,2020.4,1610,2020.4z"/>
<path class="st1" d="M994,1343c0,0,826,986.4,707,1205.2"/>
<path class="st2" d="M1380,2245.8c0,0-16.3-272.5,181.9-218.5s-33.8,413.4-33.8,413.4S1426.2,2474,1380,2245.8z"/>
<path class="st2" d="M1767.2,1432.7c-13-50.6-33.4-252.5,247.6-222.2c0.2,0,0.3,0.1,0.5,0.1c5.5,0.9,113.1,19.8,121.3,177.9
	c0.2,4.6-3.7,8.4-8.3,8c-42.3-4.1-229.8-18.4-350.5,41.1C1773.5,1439.7,1768.4,1437.3,1767.2,1432.7z"/>
<path class="st2" d="M2393.9,1548.8c44.6-27.2,231.7-105.6,284.8,171.9c0,0.2,0,0.3,0.1,0.5c0.8,5.5,14,114-134.7,168
	c-4.4,1.6-9.1-1.1-10-5.6c-8.4-41.6-49.5-225.2-141.7-323.2C2389,1556.9,2389.8,1551.3,2393.9,1548.8z"/>
<path class="st3" d="M1895.4,1403.7c-91.7,18.3-176.2,60.1-246.2,119.4c-123.3,104.6-315.3,322.9-63.4,516.6
	c346.2,266.1,701.3,526.4,863.4,179.2c136.8-292.9,110-563.4-83.1-708.7C2196.2,1382.4,2046.9,1373.4,1895.4,1403.7z"/>
<path class="st2" d="M1737.9,1716.1c-80.2,55.6-17.7,175.8,72.9,139.8c18.5-7.3,39.1-19.4,62.3-37.5
	c166.4-130.4,22.6-211.7-91.8-132.4L1737.9,1716.1z"/>
<circle class="st0" cx="1824.8" cy="1773.6" r="15"/>
<ellipse transform="matrix(0.5 -0.866 0.866 0.5 -619.888 2707.1914)" class="st4" cx="2034.6" cy="1890.4" rx="77.4" ry="104.6"/>
<ellipse transform="matrix(0.2644 -0.9644 0.9644 0.2644 -227.022 3677.1987)" cx="2296.9" cy="1987.4" rx="129.5" ry="89.6"/>
<circle class="st0" cx="2254.8" cy="1980" r="15"/>
<ellipse transform="matrix(0.5 -0.866 0.866 0.5 -657.8843 2710.4392)" class="st5" cx="2018.4" cy="1925" rx="38.7" ry="73.1"/>
<path class="st6" d="M1839.9,1928.2c9.5,35.4,79.1,118.2,159.1,12.6"/>
<path class="st6" d="M2116.2,2058.1c-47.2,18-184.7,17.3-106.3-134.1"/>
<path class="st2" d="M1752.8,2170.6c0,0-159.4,136.9,15,220.9s42.4-25.9,42.4-25.9l208,265.9c0,0,281.3,104.5,164.5-200
	c-29.8-77.6-62.1-80.3-62.1-80.3"/>
<path class="st6" d="M2234.3,2386c0,0,154.5,300.9-21.5,429.6"/>
<path class="st2" d="M2069.5,2713.1c0,0,174.1-44,137.5,108c-36.6,152-520.5,88-520.5,88l-58-24c0,0-122.6-224,0-304
	s143.2,4,134.8,60C1755,2697.1,2069.5,2713.1,2069.5,2713.1z"/>
<path class="st2" d="M1635.7,2595.4l-236.9-16.6c0,0-130.2-192.4-156,16.6c-40.1,324.8,85.4,237.8,156,239.4l236.9,24"/>
<path class="st6" d="M1446.2,2389.5c0,0-89.1,186.3-10.7,191.8"/>
<path class="st1" d="M1166,1887.6c0,0,250.6,121.5,251.3,178.5"/>
<path class="st1" d="M1291.7,1251c0,0,158.5,313.2,36.4,522.6"/>
<path class="st7" d="M1205.2,935.9c0,0-3.3,431.4,98.8,406s-98.8-431.4-98.8-431.4"/>
<path class="st7" d="M1523.1,1081.4c0,0-256.7,346.7-159.2,386.3c97.5,39.6,174.2-406.8,174.2-406.8"/>
<path class="st7" d="M877.1,1628.7c0,0,253.5,349,320.6,268c67.1-81-335.7-288.4-335.7-288.4"/>
<path class="st7" d="M1042,1268c0,0,274.3,332.9,336.3,248c62-85-352.6-267.4-352.6-267.4"/>
<path class="st7" d="M637.5,1259.2c0,0,345.7,258.1,385.7,160.7c40-97.3-406.1-175.8-406.1-175.8"/>
<path class="st7" d="M1276.8,1571.8c0,0,30.5,430.3,130.3,397c99.8-33.3-132.3-422.3-132.3-422.3"/>
<path class="st7" d="M591.4,1030.2c0,0,274.3,332.9,336.3,248s-352.6-267.4-352.6-267.4"/>
<path class="st7" d="M1013.3,905.9c0,0-133.2,410.3-28.2,416.9s35.8-441.1,35.8-441.1"/>
<path class="st7" d="M897.3,1999.7c0,0,422,89.3,417.5-15.9c-4.5-105.1-442.4,10.8-442.4,10.8"/>
</svg>
