<?xml version="1.0" encoding="utf-8"?>
<!-- Generator: Adobe Illustrator 22.0.0, SVG Export Plug-In . SVG Version: 6.00 Build 0)  -->
<svg version="1.1" id="图层_1" xmlns="http://www.w3.org/2000/svg" xmlns:xlink="http://www.w3.org/1999/xlink" x="0px" y="0px"
	 viewBox="0 0 2834.6 4252" style="enable-background:new 0 0 2834.6 4252;" xml:space="preserve">
<style type="text/css">
	.st0{fill:#020101;}
	.st1{stroke:#000000;stroke-width:20;stroke-miterlimit:10;}
	.st2{fill:#8E8E8E;}
	.st3{fill:#FFFFFF;}
	.st4{fill:none;stroke:#000000;stroke-width:20;stroke-miterlimit:10;}
	.st5{fill:#515150;}
</style>
<path class="st0" d="M1902.1,1123c0,0,123.3-286.3,239.9-81.8c123,215.7-143,158.6-143,158.6"/>
<path d="M2052.3,3493c-11.3-1.8-189.4-492.4-86.6-483c102.8,9.3,397.1-378.4,322.3,177.5s-48.3,238.5-48.3,238.5l104.4,67
	C2344.1,3493,2269.7,3527.5,2052.3,3493z"/>
<ellipse transform="matrix(0.5818 -0.8133 0.8133 0.5818 -455.9395 1287.4189)" cx="1024" cy="1087.1" rx="170" ry="206.3"/>
<ellipse class="st1" cx="1728.8" cy="2253" rx="523.2" ry="199.5"/>
<path class="st2" d="M1974.1,1163.5c0,0,168.2-28.8,101.1-106.4C2008.1,979.6,1974.1,1163.5,1974.1,1163.5z"/>
<path class="st2" d="M1145.4,1185.9c0,0-70-255.9-179.9-140.3S1145.4,1185.9,1145.4,1185.9z"/>
<path class="st3" d="M1095.6,1200.7c34.8-36.2,73.8-73.2,117.4-111c0.2-0.2,0.4-0.3,0.6-0.4c3.1-2,30.5-19.2,74.7-39.9
	c115.2-53.9,344.7-131.5,557.3-25.4c97.6,48.7,166.7,132.5,191.5,229.5c24.3,95,75.5,242.7,173.5,339.6c18.6,18.3,33.7,39.2,44.3,62
	c38.4,82.3,66.7,252.9-226.8,425.8c-346.7,204.1-888.9,111.7-1009.1-7.4C1012.1,2066.7,615.9,1699.9,1095.6,1200.7z"/>
<path d="M1307.5,1361.1c-78.4,31.5-132.1,104.5-142,188.4c-10.8,91.4,12.8,197.7,213.6,119.2c322.3-126.1,111-247.6,50.3-299
	C1397.1,1342.4,1353,1342.8,1307.5,1361.1z"/>
<circle class="st3" cx="1378.1" cy="1523.5" r="79"/>
<circle cx="1379.9" cy="1521.6" r="57.7"/>
<circle class="st3" cx="1358.5" cy="1491.2" r="24.2"/>
<path d="M1889.1,1353.6c72.3,7.2,131.7,51.4,156.4,113.3c26.8,67.4,6,224.8-157.2,136.7c-234.8-126.7-141.7-165-100.3-217.2
	C1809.8,1358.6,1847.2,1349.4,1889.1,1353.6z"/>
<circle class="st3" cx="1878.5" cy="1473.8" r="66.1"/>
<circle cx="1885.6" cy="1473.2" r="48.3"/>
<circle class="st3" cx="1894.9" cy="1446.8" r="20.2"/>
<path d="M1677.1,1810.1c0,0-189.6-105.1,5.7-113.6C1878.1,1688,1677.1,1810.1,1677.1,1810.1z"/>
<path class="st4" d="M1497.5,1875.2c30.3,28.1,152.5,69.7,179.9-69.5"/>
<path class="st4" d="M1865.2,1806.8c-32.5,47.9-166.1,144.9-201.1-32.7"/>
<path class="st1" d="M2091.1,2179l305.8-182.2c0,0,406.4-140.1,210.2,182.2c-196.2,322.3-551.8,250.1-551.8,250.1"/>
<path class="st3" d="M2290.4,2976.2c0,0,172.6-1064.8-878.2-610.4c-668.8,289.1-73.6,928.2-73.6,928.2S2112.2,3536.4,2290.4,2976.2z
	"/>
<path class="st1" d="M1225,2786.7c0,0,336.8-395.9,70.7-648.3s-451.1,699.9-451.1,699.9S909.7,3063.1,1225,2786.7z"/>
<path d="M1119.2,3500c-14.7-5.6-24-20.1-23-35.8l23-384.7c0-62.6,24.4-123.2,69-167.1c58.3-57.4,188.7-101.9,253.3,102.4
	c68.9,217.9,29.3,333.8-16,392.7c-16.3,21.2-6.1,52.2,19.5,60c18.1,5.5,32.3,15.4,33.9,32.6c3.7,41.1-229.1,40.4-322.1,38.4
	C1135.9,3537.9,1119.2,3520.9,1119.2,3500L1119.2,3500z"/>
<ellipse transform="matrix(0.9305 -0.3664 0.3664 0.9305 -594.0959 1061.4935)" class="st5" cx="2499.5" cy="2095.9" rx="93.3" ry="73.8"/>
</svg>
