<?xml version="1.0" encoding="utf-8"?>
<!-- Generator: Adobe Illustrator 22.0.0, SVG Export Plug-In . SVG Version: 6.00 Build 0)  -->
<svg version="1.1" id="图层_1" xmlns="http://www.w3.org/2000/svg" xmlns:xlink="http://www.w3.org/1999/xlink" x="0px" y="0px"
	 viewBox="0 0 2834.6 4252" style="enable-background:new 0 0 2834.6 4252;" xml:space="preserve">
<style type="text/css">
	.st0{fill:#161514;stroke:#020202;stroke-miterlimit:10;}
	.st1{fill:#FFFFFF;}
	.st2{fill:#020101;}
	.st3{fill:#8E8E8E;}
	.st4{fill:#D88484;stroke:#010201;stroke-width:14;stroke-miterlimit:10;}
	.st5{fill:#A2F2A4;stroke:#05CE56;stroke-width:7;stroke-miterlimit:10;}
	.st6{fill:none;stroke:#000000;stroke-width:20;stroke-miterlimit:10;}
	.st7{fill:#636363;}
	.st8{fill:#7A7A7A;}
	.st9{fill:none;stroke:#A5EFC5;stroke-width:20;stroke-miterlimit:10;}
	.st10{fill:#A5EFC5;stroke:#A5EFC5;stroke-width:20;stroke-miterlimit:10;}
	.st11{fill:none;stroke:#0FB251;stroke-width:20;stroke-miterlimit:10;}
</style>
<ellipse transform="matrix(9.218136e-02 -0.9957 0.9957 9.218136e-02 -936.7542 3379.0925)" cx="1384.8" cy="2203.3" rx="160.4" ry="533.7"/>
<path class="st0" d="M1863.3,3038.5c0,0,287.8-118.3,489.4,175.6c0,0,58.5-172.8,92.9-50.3c34.4,122.5-6,279.6-755.1,52.6
	l73.4-140.8L1863.3,3038.5z"/>
<ellipse transform="matrix(9.218136e-02 -0.9957 0.9957 9.218136e-02 -1464.6461 3934.7449)" class="st1" cx="1425.6" cy="2770.6" rx="571" ry="648.4"/>
<path d="M1798,2045c0,0,560.8,655.9,168.2,623s-660.6-29.5-162.4-256.9c0,0,51.9-62.9-40.3-252.7l-203.1-104.2l223-44L1798,2045z"/>
<path class="st2" d="M1630.1,1064.6c0,0,123.3-286.3,239.9-81.8c123,215.7-143,158.6-143,158.6"/>
<ellipse transform="matrix(0.5818 -0.8133 0.8133 0.5818 -522.1838 1041.7709)" cx="752" cy="1028.7" rx="170" ry="206.3"/>
<path class="st3" d="M873.4,1127.5c0,0-70-255.9-179.9-140.3S873.4,1127.5,873.4,1127.5z"/>
<path class="st3" d="M1702.1,1105.1c0,0,168.2-28.8,101.1-106.4S1702.1,1105.1,1702.1,1105.1z"/>
<path class="st1" d="M823.6,1142.3c34.8-36.2,73.8-73.2,117.4-111c0.2-0.2,0.4-0.3,0.6-0.4c3.1-2,30.5-19.2,74.7-39.9
	c115.2-53.9,344.7-131.5,557.3-25.4c97.6,48.7,166.7,132.5,191.5,229.5c24.3,95,75.5,242.7,173.5,339.6c18.6,18.3,33.7,39.2,44.3,62
	c38.4,82.3,66.7,252.9-226.8,425.8c-346.7,204.1-888.9,111.7-1009.1-7.4C740.1,2008.3,343.9,1641.5,823.6,1142.3z"/>
<path class="st4" d="M1322.5,1844.6c0,0,84.2,69.8,179.3,0"/>
<polygon class="st5" points="1384.3,1818.2 1516.9,3388.2 1614.9,3389.9 1445.7,1819.3 "/>
<path d="M1035.5,1302.7c-78.4,31.5-132.1,104.5-142,188.4c-10.8,91.4,12.8,197.7,213.6,119.2c322.3-126.1,111-247.6,50.3-299
	C1125.1,1284,1081,1284.4,1035.5,1302.7z"/>
<circle class="st1" cx="1106.1" cy="1465.1" r="79"/>
<circle cx="1107.9" cy="1463.2" r="57.7"/>
<circle class="st1" cx="1086.5" cy="1432.8" r="24.2"/>
<path d="M1617.1,1295.2c72.3,7.2,131.7,51.4,156.4,113.3c26.8,67.4,0.5,234.4-157.2,136.7c-181.4-112.4-141.7-165-100.3-217.2
	C1537.8,1300.2,1575.2,1291,1617.1,1295.2z"/>
<circle class="st1" cx="1606.5" cy="1415.4" r="66.1"/>
<circle cx="1613.6" cy="1414.8" r="48.3"/>
<circle class="st1" cx="1622.9" cy="1388.4" r="20.2"/>
<path d="M1405.1,1751.7c0,0-189.6-105.1,5.7-113.6S1405.1,1751.7,1405.1,1751.7z"/>
<path class="st6" d="M1225.5,1829.6c30.3,15.5,152.5,38.4,179.9-38.3"/>
<path class="st6" d="M1600.2,1798.4c-33,27.8-166.1,84.8-196.8-16.4"/>
<path class="st0" d="M1029.5,2353.8c0,0-40.7-345.4-129.5-316.7S781.7,2362.6,780,2420.9c-1.7,58.3-25.6,333.8,132.1,348.3
	s611.8-91.1,611.8-91.1s241.5-195.8-344.5-184.9C1179.5,2493.2,1016,2554.4,1029.5,2353.8z"/>
<path d="M747.2,2947.7c0,0-232.3,128.7,56.6,337.4c81.3,58.7,186.2,83.7,462.8,84c0,0-11.4,230.2,198.5,58.2
	C1675,3255.2,862.9,2866.4,747.2,2947.7z"/>
<ellipse transform="matrix(0.4087 -0.9127 0.9127 0.4087 -2257.7751 3270.0386)" class="st7" cx="1394.8" cy="3377.4" rx="68" ry="46.7"/>
<circle class="st8" cx="1352.9" cy="3312.9" r="11.4"/>
<circle class="st8" cx="1315.4" cy="3363.8" r="18.7"/>
<circle class="st8" cx="1322.5" cy="3434.3" r="17.6"/>
<path class="st9" d="M1437.9,2382.5c0,0-220-109-193.2-195.5"/>
<path class="st10" d="M1201.2,2398.3c0,0,80.7-203.5,28.3-221.1S1201.2,2398.3,1201.2,2398.3z"/>
<path class="st10" d="M1379,2286.3c0,0-101.3-125.7-125-107.5C1230.2,2196.9,1379,2286.3,1379,2286.3z"/>
<path class="st9" d="M1543.8,2970.9c0,0,180.8-166.1,130.9-241.7"/>
<path class="st10" d="M1807.6,2925.9c0,0-145.9-163.2-102.7-197.8C1748,2693.5,1807.6,2925.9,1807.6,2925.9z"/>
<path class="st10" d="M1579.3,2850c0,0,44.7-148.8,94-125.8C1722.6,2747.2,1579.3,2850,1579.3,2850z"/>
<path class="st11" d="M1490.2,2991.2c0,0,32.2,43.6,82.9-20.3"/>
<path class="st11" d="M1396.4,2038.3c0,0,32.2,43.6,82.9-20.3"/>
<path class="st11" d="M1425.6,2408.9c0,0,24.3,48.4,85.1-5.9"/>
</svg>
