<?xml version="1.0" encoding="utf-8"?>
<!-- Generator: Adobe Illustrator 22.0.0, SVG Export Plug-In . SVG Version: 6.00 Build 0)  -->
<svg version="1.1" id="图层_1" xmlns="http://www.w3.org/2000/svg" xmlns:xlink="http://www.w3.org/1999/xlink" x="0px" y="0px"
	 viewBox="0 0 2834.6 4252" style="enable-background:new 0 0 2834.6 4252;" xml:space="preserve">
<style type="text/css">
	.st0{fill:#050505;}
	.st1{fill:#FCFAFB;}
	.st2{fill:#725A48;stroke:#0C0708;stroke-width:14;stroke-miterlimit:10;}
	.st3{fill:#595758;}
	.st4{fill:#020101;}
	.st5{fill:#8E8E8E;}
	.st6{fill:#FFFFFF;}
	.st7{fill:#D88484;stroke:#010201;stroke-width:14;stroke-miterlimit:10;}
	.st8{fill:none;stroke:#000000;stroke-width:20;stroke-miterlimit:10;}
	.st9{fill:#F28696;stroke:#000000;stroke-width:14;stroke-miterlimit:10;}
	.st10{stroke:#0C0708;stroke-width:14;stroke-miterlimit:10;}
</style>
<path class="st0" d="M1283.4,2329.9c-12.6,57.2-93.4,474.2,232.4,316.1c1.1-0.5,2.1-1.3,3-2.1l59.5-59.5c7.1-7.2,19.6-1.7,18.7,8.2
	l-9.2,108.6c-0.6,7.4,5.5,21.4,12.9,19.3c46.7-13.3,154.3-85.6,185.3-256.6c0.9-5.1,5.1,1.7,0,0l-53.3-15.9c-2.4-0.8,2.4,0.7,0,0
	c-64.6-18.2-86.1,5.9-81.1-157.4c0.2-6.8-6.1-12-13-10.7l-354.3,45.8C1280,2326.5,1284.3,2325.7,1283.4,2329.9z"/>
<path class="st0" d="M1802.5,2183.1c0,0,296.6-20.6,313.1-112.1c16.5-91.5-295-0.4-295-0.4L1802.5,2183.1z"/>
<ellipse class="st1" cx="1458.3" cy="1940.2" rx="503.8" ry="419.7"/>
<ellipse transform="matrix(0.978 -0.2086 0.2086 0.978 -284.218 484.8529)" cx="2156.6" cy="1589.9" rx="153.3" ry="126.3"/>
<path class="st2" d="M359.3,1659.8c0,0-362,37.9-247.4,70.1c91.3,25.7,268.4-6.9,184.4,64.9s-178.3,126-178.3,126l208.3-42
	c0,0-6,42-63,72c-57,30-111,60-120,114s622.9,18,622.9,18c17.7,14.5,769.8,3.3-73.8,75c-239.6,20.4-235.4,49-235.4,49
	s-148.6-7,444.2-5.6c334.9,0.8,574.9-70.4,574.9-70.4l1150.3-37.2c0,0-111-126-12-171c99-45-204-48-204-48l264.8-148.8
	c0,0,122.8-72-489.2-60C1573.8,1677.8,359.3,1659.8,359.3,1659.8z"/>
<path d="M1688.7,1622.8c15.1-16.1,33.5-29.2,53.7-39.6c17.6-9,28.7-53.7,59.3-135.6c27.6-73.7,159.7,79.3,199.1,236.7
	c17.5,69.8-68.3,104.2-188.4,162c-119,57.3-466.2,225.9-206.2-133.6c0,0,0-0.1,0.1-0.1c4.5-6.3,9.5-12.3,14.9-18L1688.7,1622.8z"/>
<ellipse transform="matrix(0.1416 -0.9899 0.9899 0.1416 251.5442 3521.9456)" class="st3" cx="2156.6" cy="1615.9" rx="48.4" ry="86.4"/>
<ellipse class="st3" cx="2115.6" cy="1533.9" rx="18.1" ry="14.2"/>
<ellipse class="st3" cx="2194.6" cy="1537.3" rx="25.9" ry="20.3"/>
<ellipse class="st3" cx="2266.5" cy="1575.1" rx="18.9" ry="14.8"/>
<path class="st4" d="M1016.7,894c0,0-95.9-222.7-186.6-63.7c-95.7,167.8,111.2,123.4,111.2,123.4"/>
<ellipse transform="matrix(0.8133 -0.5818 0.5818 0.8133 -186.6121 1150.6237)" cx="1699.8" cy="866.1" rx="160.5" ry="132.2"/>
<path class="st5" d="M1605.3,943c0,0,54.5-199.1,139.9-109.2S1605.3,943,1605.3,943z"/>
<path class="st5" d="M960.6,925.6c0,0-130.9-22.4-78.6-82.8C934.2,782.5,960.6,925.6,960.6,925.6z"/>
<path class="st6" d="M1644,954.5c-27.1-28.2-57.4-57-91.3-86.3c-0.1-0.1-0.3-0.2-0.4-0.3c-2.4-1.5-23.7-14.9-58.1-31
	c-89.6-41.9-268.1-102.3-433.5-19.7C984.7,855,931,920.2,911.7,995.6c-18.9,73.9-58.7,188.8-135,264.2
	c-14.4,14.3-26.2,30.5-34.5,48.2c-29.9,64-51.9,196.7,176.5,331.2c269.7,158.8,691.5,86.9,784.9-5.8
	C1709,1628.1,2017.2,1342.8,1644,954.5z"/>
<path class="st7" d="M1255.9,1500.8c0,0-65.5,54.3-139.4,0"/>
<path d="M1479.2,1079.3c61,24.5,102.7,81.3,110.4,146.6c8.4,71.1-9.9,153.8-166.1,92.7c-250.7-98.1-86.3-192.6-39.1-232.6
	C1409.5,1064.7,1443.8,1065,1479.2,1079.3z"/>
<circle class="st6" cx="1424.3" cy="1205.6" r="61.5"/>
<circle cx="1422.9" cy="1204.1" r="44.9"/>
<circle class="st6" cx="1439.5" cy="1180.5" r="18.8"/>
<path d="M1026.8,1073.5c-56.3,5.6-102.5,40-121.6,88.1c-20.8,52.4-0.4,182.3,122.3,106.3c141.1-87.4,110.2-128.4,78.1-169
	C1088.4,1077.3,1059.4,1070.2,1026.8,1073.5z"/>
<circle class="st6" cx="1035" cy="1166.9" r="51.4"/>
<circle cx="1029.5" cy="1166.5" r="37.5"/>
<circle class="st6" cx="1022.3" cy="1145.9" r="15.7"/>
<path d="M1191.7,1428.6c0,0,147.5-81.8-4.4-88.4C1035.3,1333.6,1191.7,1428.6,1191.7,1428.6z"/>
<path class="st8" d="M1331.4,1489.1c-23.6,12-118.6,29.9-140-29.8"/>
<path class="st8" d="M1039.9,1464.9c25.6,21.6,129.2,66,153.1-12.7"/>
<path class="st9" d="M1116.5,1500.8c0,0,8.3,23.6,22.2,46.1c25.9,42,71,80.2,117.3-46.1c0,0-27.6-4.6-46.6-16.3
	c-10.1-6.2-17.9-14.5-17.8-25.2C1191.7,1428.6,1209.4,1487,1116.5,1500.8z"/>
<path class="st10" d="M1165.2,1520l-26.6,26.9c-0.7,11.5,38.6-8,48.3-14.2c23.7-15.3,57.5-34.7,61.5-23.2
	c6.2,17.9-67.8-42.6-65.4-43.1c2.5-0.5,8.7,28.2-43.6,39c-41.9,8.7,12.4,57,12.4,57"/>
<path class="st10" d="M675,1693.6c-8.4-2.4-12-12.3-7-19.5c28.7-41.2,123-158.8,244-123.9c146,42,14.6,207.7,14.6,207.7
	s-88,142.4-188.4-88.7C738.2,1669.2,726.6,1708,675,1693.6z"/>
</svg>
