<svg xmlns="http://www.w3.org/2000/svg" width="42" height="48" viewBox="0 0 56 64"><path fill="#315290" d="M40 0H8a8 8 0 00-8 8v48a8 8 0 008 8h40a8 8 0 008-8V16L40 0z"/><path fill="#9AB2DC" d="M40 8a8 8 0 008 8h8L40 0v8z"/><path d="M6.677 26.524h4.227c.953 0 1.68.073 2.18.219.672.198 1.247.55 1.727 1.055.479.505.844 1.124 1.094 1.855.25.732.375 1.634.375 2.707 0 .943-.117 1.755-.352 2.438-.287.833-.695 1.508-1.227 2.023-.401.391-.943.695-1.625.914-.511.162-1.193.242-2.047.242H6.677V26.524zm2.312 1.937v7.586h1.727c.646 0 1.112-.036 1.398-.109.375-.094.686-.252.934-.477.247-.224.449-.592.605-1.105.156-.513.234-1.212.234-2.098 0-.885-.078-1.565-.234-2.039-.156-.474-.375-.844-.656-1.109s-.638-.445-1.07-.539c-.323-.073-.956-.109-1.898-.109h-1.04zm7.981 3.859c0-1.167.174-2.146.523-2.937a5.4 5.4 0 011.066-1.57c.45-.463.944-.807 1.48-1.031.713-.302 1.536-.453 2.469-.453 1.688 0 3.038.523 4.051 1.57 1.013 1.047 1.52 2.503 1.52 4.367 0 1.849-.503 3.296-1.508 4.34s-2.349 1.566-4.031 1.566c-1.703 0-3.058-.52-4.063-1.559-1.004-1.039-1.507-2.469-1.507-4.293zm2.383-.078c0 1.297.299 2.28.898 2.949s1.359 1.004 2.281 1.004 1.678-.332 2.27-.996c.591-.664.887-1.66.887-2.988 0-1.312-.288-2.292-.863-2.937-.576-.646-1.34-.969-2.293-.969s-1.722.327-2.305.98c-.583.654-.875 1.64-.875 2.957zm17.059 1.524l2.242.711c-.344 1.25-.916 2.179-1.715 2.785-.8.607-1.814.91-3.043.91-1.521 0-2.771-.52-3.75-1.559-.979-1.039-1.469-2.459-1.469-4.262 0-1.906.492-3.387 1.477-4.441s2.278-1.582 3.883-1.582c1.401 0 2.539.414 3.414 1.242.521.49.911 1.193 1.172 2.109l-2.289.547c-.136-.594-.418-1.063-.848-1.406s-.952-.516-1.566-.516c-.849 0-1.538.305-2.066.914-.529.609-.793 1.597-.793 2.961 0 1.448.26 2.479.781 3.094.521.615 1.198.922 2.031.922.614 0 1.143-.195 1.586-.586.443-.39.76-1.004.953-1.843zm2.263 4.211L42.589 32l-3.547-5.477h2.703l2.297 3.68 2.25-3.68h2.68l-3.563 5.562 3.914 5.891h-2.789l-2.539-3.961-2.547 3.961h-2.773z" fill="#FFF"/></svg>