<svg xmlns="http://www.w3.org/2000/svg" width="42" height="48" viewBox="0 0 56 64"><path fill="#82A5D7" d="M40 0H8a8 8 0 00-8 8v48a8 8 0 008 8h40a8 8 0 008-8V16L40 0z"/><path fill="#C3D5EE" d="M40 8a8 8 0 008 8h8L40 0v8z"/><g fill="#FFF"><path d="M13.773 37.977V26.524h8.492v1.938h-6.18V31h5.75v1.93h-5.75v3.117h6.398v1.93h-8.71z"/><path d="M22.481 37.977L26.395 32l-3.547-5.477h2.703l2.297 3.68 2.25-3.68h2.68l-3.562 5.562 3.914 5.891h-2.79l-2.539-3.961-2.547 3.961h-2.773zm11.035 0V26.524h8.492v1.938h-6.18V31h5.75v1.93h-5.75v3.117h6.398v1.93h-8.71z"/></g></svg>