<svg xmlns="http://www.w3.org/2000/svg" width="42" height="48" viewBox="0 0 56 64"><path fill="#F29A80" d="M40 0H8a8 8 0 00-8 8v48a8 8 0 008 8h40a8 8 0 008-8V16L40 0z"/><path fill="#F8CABB" d="M40 8a8 8 0 008 8h8L40 0v8z"/><path d="M13.753 37.727V26.273h3.711c1.406 0 2.323.058 2.75.172.656.172 1.206.546 1.648 1.121.442.576.664 1.319.664 2.23 0 .703-.128 1.294-.383 1.773-.255.479-.58.855-.973 1.129a3.357 3.357 0 01-1.199.543c-.552.109-1.352.164-2.398.164h-1.508v4.32h-2.312zm2.313-9.516v3.25h1.266c.911 0 1.521-.06 1.828-.18a1.52 1.52 0 00.723-.563c.174-.255.262-.552.262-.891 0-.417-.123-.76-.367-1.031a1.601 1.601 0 00-.93-.508c-.276-.052-.831-.078-1.664-.078h-1.118zm7.551-1.938h4.227c.953 0 1.68.073 2.18.219.672.198 1.247.55 1.727 1.055.479.505.844 1.124 1.094 1.855.25.732.375 1.634.375 2.707 0 .943-.117 1.755-.352 2.438-.287.833-.695 1.508-1.227 2.023-.401.391-.943.695-1.625.914-.511.162-1.193.242-2.047.242h-4.352V26.273zm2.313 1.938v7.586h1.727c.646 0 1.112-.036 1.398-.109.375-.094.686-.252.934-.477.247-.224.449-.592.605-1.105.156-.513.234-1.212.234-2.098 0-.885-.078-1.565-.234-2.039-.156-.474-.375-.844-.656-1.109s-.638-.445-1.07-.539c-.323-.073-.956-.109-1.898-.109h-1.04zm8.465 9.516V26.273h7.852v1.938h-5.539v2.711h4.781v1.938h-4.781v4.867h-2.313z" fill="#FFF"/></svg>