<svg xmlns="http://www.w3.org/2000/svg" width="42" height="48" viewBox="0 0 56 64"><path fill="#374958" d="M40 0H8a8 8 0 00-8 8v48a8 8 0 008 8h40a8 8 0 008-8V16L40 0z"/><path fill="#88A0B3" d="M40 8a8 8 0 008 8h8L40 0v8z"/><g fill="#FFF"><path d="M12.097 37.727V26.273h4.867c1.224 0 2.113.103 2.668.309.555.206.999.572 1.332 1.098.333.526.5 1.128.5 1.805 0 .859-.253 1.569-.758 2.129s-1.261.913-2.266 1.059c.5.292.913.612 1.238.961.325.349.764.969 1.316 1.859l1.398 2.234h-2.766l-1.672-2.492c-.594-.891-1-1.452-1.219-1.684a1.791 1.791 0 00-.695-.477c-.245-.086-.633-.129-1.164-.129h-.469v4.781h-2.31zm2.312-6.61h1.711c1.109 0 1.802-.047 2.078-.141.276-.094.492-.255.648-.484.156-.229.234-.516.234-.859 0-.385-.103-.696-.309-.934-.206-.237-.496-.387-.871-.449-.188-.026-.75-.039-1.688-.039h-1.805v2.906z"/><path d="M33.172 37.727h-2.516l-1-2.602h-4.578l-.945 2.602H21.68l4.461-11.453h2.445l4.586 11.453zm-4.258-4.532l-1.578-4.25-1.547 4.25h3.125zm4.692 4.532V26.273h4.867c1.224 0 2.113.103 2.668.309.555.206.999.572 1.332 1.098.333.526.5 1.128.5 1.805 0 .859-.253 1.569-.758 2.129s-1.261.913-2.266 1.059c.5.292.913.612 1.238.961.325.349.764.969 1.316 1.859l1.398 2.234h-2.766l-1.672-2.492c-.594-.891-1-1.452-1.219-1.684a1.791 1.791 0 00-.695-.477c-.245-.086-.633-.129-1.164-.129h-.469v4.781h-2.31zm2.313-6.61h1.711c1.109 0 1.802-.047 2.078-.141.276-.094.492-.255.648-.484.156-.229.234-.516.234-.859 0-.385-.103-.696-.309-.934-.206-.237-.496-.387-.871-.449-.188-.026-.75-.039-1.688-.039h-1.805v2.906z"/></g></svg>