<svg xmlns="http://www.w3.org/2000/svg" width="42" height="48" viewBox="0 0 56 64"><path fill="#A2CB7E" d="M40 0H8a8 8 0 00-8 8v48a8 8 0 008 8h40a8 8 0 008-8V16L40 0z"/><path fill="#EBF1C4" d="M40 8a8 8 0 008 8h8L40 0v8z"/><g fill="#FFF"><path d="M17.425 37.977v-9.516h-3.398v-1.938h9.102v1.938h-3.391v9.516h-2.313z"/><path d="M22.656 37.977L26.571 32l-3.547-5.477h2.703l2.297 3.68 2.25-3.68h2.68l-3.563 5.562 3.914 5.891h-2.789l-2.539-3.961-2.547 3.961h-2.774z"/><path d="M36.27 37.977v-9.516h-3.398v-1.938h9.102v1.938h-3.391v9.516H36.27z"/></g></svg>