<svg xmlns="http://www.w3.org/2000/svg" width="42" height="48" viewBox="0 0 56 64"><path fill="#AFB8C0" d="M40 0H8a8 8 0 00-8 8v48a8 8 0 008 8h40a8 8 0 008-8V16L40 0z"/><path fill="#CDD6DE" d="M40 8a8 8 0 008 8h8L40 0v8z"/><path d="M20.394 33.25h-1.992a51.98 51.98 0 01-.008-.523c0-.646.106-1.177.32-1.594.213-.417.641-.885 1.281-1.406.641-.521 1.023-.862 1.148-1.023.192-.255.289-.536.289-.844 0-.427-.171-.793-.512-1.098-.341-.305-.801-.457-1.379-.457-.558 0-1.023.159-1.398.477-.375.318-.633.802-.773 1.453l-2.016-.25c.057-.932.454-1.724 1.191-2.375.737-.651 1.704-.977 2.902-.977 1.26 0 2.263.33 3.008.988.745.659 1.117 1.426 1.117 2.301 0 .484-.137.943-.41 1.375-.273.433-.858 1.021-1.754 1.766-.464.386-.751.695-.863.93-.111.234-.162.653-.151 1.257zm-1.992 2.953v-2.195h2.195v2.195h-2.195zm4.95 3.164v-1.422h9.125v1.422h-9.125zm14.114-6.117h-1.992a51.98 51.98 0 01-.008-.523c0-.646.106-1.177.32-1.594.213-.417.641-.885 1.281-1.406.641-.521 1.023-.862 1.148-1.023.192-.255.289-.536.289-.844 0-.427-.171-.793-.512-1.098-.341-.305-.801-.457-1.379-.457-.558 0-1.023.159-1.398.477-.375.318-.633.802-.773 1.453l-2.016-.25c.057-.932.454-1.724 1.191-2.375.737-.651 1.704-.977 2.902-.977 1.26 0 2.263.33 3.008.988.745.659 1.117 1.426 1.117 2.301 0 .484-.137.943-.41 1.375-.273.433-.858 1.021-1.754 1.766-.464.386-.751.695-.863.93-.111.234-.162.653-.151 1.257zm-1.993 2.953v-2.195h2.195v2.195h-2.195z" fill="#FFF"/></svg>