<svg xmlns="http://www.w3.org/2000/svg" width="42" height="48" viewBox="0 0 56 64"><path fill="#817EBB" d="M40 0H8a8 8 0 00-8 8v48a8 8 0 008 8h40a8 8 0 008-8V16L40 0z"/><path fill="#CFC5E1" d="M40 8a8 8 0 008 8h8L40 0v8z"/><path d="M16.808 37.727v-2.086l6.016-7.43h-5.336v-1.938h8.383v1.797l-6.273 7.727h6.516v1.93h-9.306zm9.895 0V26.273h2.313v11.453h-2.313zm3.716 0V26.273h3.711c1.406 0 2.323.058 2.75.172.656.172 1.206.546 1.648 1.121.442.576.664 1.319.664 2.23 0 .703-.128 1.294-.383 1.773-.255.479-.58.855-.973 1.129a3.357 3.357 0 01-1.199.543c-.552.109-1.352.164-2.398.164h-1.508v4.32h-2.312zm2.312-9.516v3.25h1.266c.911 0 1.521-.06 1.828-.18a1.52 1.52 0 00.723-.563c.174-.255.262-.552.262-.891 0-.417-.123-.76-.367-1.031a1.601 1.601 0 00-.93-.508c-.276-.052-.831-.078-1.664-.078h-1.118z" fill="#FFF"/></svg>